<svg width="25" height="25" viewBox="0 0 25 25" fill="none" xmlns="http://www.w3.org/2000/svg">
<g id="delete">
<g id="Delete">
<path id="Stroke 1" d="M19.585 10.3125C19.585 10.3125 19.042 17.0475 18.727 19.8845C18.577 21.2395 17.74 22.0335 16.369 22.0585C13.76 22.1055 11.148 22.1085 8.54004 22.0535C7.22104 22.0265 6.39804 21.2225 6.25104 19.8915C5.93404 17.0295 5.39404 10.3125 5.39404 10.3125" stroke="#130F26" stroke-width="1.5" stroke-linecap="round" stroke-linejoin="round"/>
<path id="Stroke 3" d="M20.9683 7.08398H4.01025" stroke="#130F26" stroke-width="1.5" stroke-linecap="round" stroke-linejoin="round"/>
<path id="Stroke 5" d="M17.7006 7.08397C16.9156 7.08397 16.2396 6.52897 16.0856 5.75997L15.8426 4.54397C15.6926 3.98297 15.1846 3.59497 14.6056 3.59497H10.3726C9.79359 3.59497 9.28559 3.98297 9.13559 4.54397L8.89259 5.75997C8.73859 6.52897 8.06259 7.08397 7.27759 7.08397" stroke="#130F26" stroke-width="1.5" stroke-linecap="round" stroke-linejoin="round"/>
</g>
</g>
</svg>
